<svg xmlns="http://www.w3.org/2000/svg" viewBox="0 0 120 120" width="100%" height="100%">
  <defs>
    <linearGradient id="eduBg" x1="0%" y1="0%" x2="100%" y2="100%">
      <stop offset="0%" stop-color="#4f46e5"/>
      <stop offset="100%" stop-color="#3730a3"/>
    </linearGradient>
  </defs>
  <rect width="120" height="120" rx="28" fill="url(#eduBg)"/>
  <circle cx="60" cy="60" r="48" fill="#eef2ff"/>
  <!-- Graduation Cap (Mortarboard) -->
  <polygon points="60,32 94,46 60,60 26,46" fill="#312e81"/>
  <polygon points="60,36 86,46 60,56 34,46" fill="#4338ca"/>
  <!-- Skull cap underneath -->
  <path d="M40 52 L40 68 C40 76 80 76 80 68 L80 52 Z" fill="#312e81"/>
  <!-- Tassel -->
  <path d="M72 48 L84 62 L84 76" fill="none" stroke="#fbbf24" stroke-width="2.5" stroke-linecap="round"/>
  <circle cx="84" cy="78" r="3.5" fill="#f59e0b"/>
  <!-- Diploma Scroll -->
  <g transform="translate(36, 78)">
    <rect x="0" y="0" width="48" height="12" rx="4" fill="#ffffff" stroke="#cbd5e1" stroke-width="1.5"/>
    <rect x="20" y="0" width="8" height="12" fill="#ef4444"/>
  </g>
</svg>
